<svg width="540" height="640" viewBox="0 0 540 640" fill="none" xmlns="http://www.w3.org/2000/svg">
<path d="M540 0H0V640H540V0Z" fill="#DFEFF7"/>
<path d="M540 528.581H0V640H540V528.581Z" fill="url(#paint0_linear)"/>
<path d="M84.7341 586.008C77.5421 589.981 43.4511 588.818 54.8621 603.106C61.6251 611.573 87.7401 608.262 98.2321 607.606C113.69 606.637 127.537 606.721 143.224 606.706C157.966 606.689 173.564 608.2 188.218 606.706C194.607 606.055 206.486 602.917 211.772 597.864C217.011 592.854 245.931 597.235 237.553 587.965C229.784 579.369 213.646 584.123 202.662 582.361C190.04 580.334 178.3 576.767 165.722 576.111C153.647 575.481 140.832 576.788 128.826 577.91C118.732 578.854 93.5501 581.139 84.7341 586.008Z" fill="#B3E4FF"/>
<path d="M296.357 283.689C296.357 283.689 304.843 266.15 325.134 268.099C325.134 268.099 354.594 238.866 386.009 264.202C386.009 264.202 419.404 257.924 444.133 269.637C460.622 277.446 466.069 285.638 466.069 285.638L296.357 283.689Z" fill="#B3E4FF"/>
<path d="M384.959 379.562C384.959 379.562 389.494 370.19 400.337 371.231C400.337 371.231 416.08 355.609 432.869 369.148C432.869 369.148 450.714 365.794 463.931 372.053C472.743 376.226 475.652 380.604 475.652 380.604L384.959 379.562Z" fill="#B3E4FF"/>
<path d="M48.5969 281.858C48.5969 281.858 53.1319 272.484 63.9759 273.526C63.9759 273.526 79.7189 257.904 96.5069 271.443C96.5069 271.443 114.354 268.088 127.569 274.347C136.381 278.521 139.292 282.898 139.292 282.898L48.5969 281.858Z" fill="#B3E4FF"/>
<path d="M232.257 299.574C232.257 299.574 240.742 282.035 261.034 283.984C261.034 283.984 290.493 254.751 321.908 280.087C321.908 280.087 355.303 273.81 380.033 285.522C396.521 293.332 401.967 301.523 401.967 301.523L232.257 299.574Z" fill="#88B9E2"/>
<path d="M220.558 434.824C220.558 434.824 225.091 430.568 226.897 430.895C228.704 431.221 228.575 436.023 226.897 438.139C225.22 440.254 221.22 439.107 221.22 439.107L220.558 434.824Z" fill="#FFB27D"/>
<path d="M187.771 296.732C188.588 296.515 189.079 295.67 188.862 294.853L185.624 282.645C185.406 281.829 184.561 281.337 183.743 281.554C182.928 281.771 182.436 282.617 182.653 283.433L185.892 295.641C186.108 296.458 186.954 296.949 187.771 296.732Z" fill="#2B478B"/>
<path d="M194.406 318.3C194.406 318.3 264.145 289.112 324.193 327.075C324.193 327.075 283.052 335.651 265.774 354.815C265.774 354.815 230.261 322.173 194.406 318.3Z" fill="#E0982F"/>
<path d="M265.774 354.815C265.774 354.815 214.474 362.696 209.367 375.561L194.406 318.3C194.406 318.3 243.358 323.843 265.774 354.815Z" fill="#D18B2F"/>
<path d="M194.188 318.358C194.188 318.358 119.153 327.589 85.8308 390.331C85.8308 390.331 125.81 377.381 150.316 385.455C150.315 385.455 164.972 339.499 194.188 318.358Z" fill="#E0982F"/>
<path d="M150.315 385.455C150.315 385.455 198.772 366.863 209.586 375.503L194.187 318.358C194.188 318.358 154.425 347.443 150.315 385.455Z" fill="#D18B2F"/>
<path d="M226.447 444.202L227.302 443.974C227.779 443.848 228.064 443.356 227.938 442.88L195.076 319.047C194.95 318.571 194.458 318.286 193.982 318.412L193.127 318.64C192.65 318.765 192.365 319.258 192.491 319.733L225.354 443.566C225.48 444.042 225.973 444.327 226.447 444.202Z" fill="#2B478B"/>
<path d="M324.19 327.074C323.955 326.94 293.778 309.896 265.077 317.847L265.072 317.841C264.96 317.666 262.584 313.961 257.772 309.222C251.319 302.863 240.486 294.642 224.878 290.598C215.587 288.191 204.608 287.265 191.856 289.094C212.419 284.93 230.627 284.817 246.447 287.085C246.45 287.084 246.455 287.082 246.459 287.084C259.705 288.981 271.282 292.546 281.168 296.794C281.168 296.794 281.17 296.793 281.172 296.795C309.539 308.983 324.007 326.813 324.19 327.074Z" fill="#FFC81A"/>
<path d="M179.49 292.563C169.361 296.567 161.42 301.614 155.197 307.081C144.54 316.423 138.904 326.985 135.926 335.623C132.551 345.415 132.588 352.732 132.589 352.999L132.59 353.008C103.723 360.332 85.9669 390.098 85.8279 390.329C85.8309 390.313 85.8339 390.299 85.8349 390.283C85.8639 390.04 86.0249 388.904 86.4159 387.041C86.4159 387.033 86.4189 387.025 86.4199 387.02C87.5709 381.565 90.6959 369.931 98.3079 356.293C103.295 347.356 110.204 337.561 119.75 328.08C133.495 314.419 152.705 301.411 179.49 292.563Z" fill="#FFC81A"/>
<path d="M265.077 317.848C265.077 317.848 194.502 304.233 132.59 353.008C132.59 353.008 131.491 341.811 137.294 328.497C143.34 314.623 156.88 298.447 186.965 290.252C186.965 290.252 222.583 279.673 247.348 298.027C247.348 298.027 248.38 298.747 249.957 299.995C254.234 303.373 262.513 310.615 265.077 317.848Z" fill="#FFD04D"/>
<path d="M232.68 448.715C231.202 448.715 229.742 448.336 228.416 447.592C226.369 446.443 224.896 444.564 224.27 442.301L219.749 425.956C219.427 424.788 220.111 423.579 221.278 423.256C222.447 422.935 223.655 423.618 223.977 424.785L228.498 441.131C228.81 442.258 229.544 443.194 230.563 443.766C231.582 444.339 232.762 444.477 233.886 444.157C235.041 443.828 235.987 443.06 236.545 441.997C237.105 440.933 237.2 439.72 236.816 438.581L235.138 433.61C234.751 432.463 235.368 431.218 236.516 430.831C237.664 430.444 238.909 431.06 239.296 432.208L240.972 437.178C241.744 439.466 241.55 441.902 240.428 444.038C239.305 446.175 237.408 447.715 235.087 448.377C234.295 448.602 233.484 448.715 232.68 448.715Z" fill="#FFC81A"/>
<path d="M101.175 512.998C101.175 512.998 112.209 504.775 113.387 502.055C114.565 499.331 119.63 489.368 120.939 488.353C120.939 488.353 123.682 488.011 124.075 489.852C124.468 491.693 121.463 502.623 119.369 505.922C117.275 509.222 107.242 520.41 103.947 522.033L101.175 512.998Z" fill="#ED985F"/>
<path d="M69.0209 551.674C69.0209 551.674 70.0589 555.732 69.0209 557.43C67.9829 559.128 65.6249 560.356 65.1529 559.978C64.6809 559.601 64.9639 557.027 65.5299 555.861C66.0959 554.694 64.7749 553.279 65.9079 551.674C67.0389 550.07 69.0209 551.674 69.0209 551.674Z" fill="#ED985F"/>
<path d="M101.63 498.579C101.63 498.579 104.045 498.62 103.887 500.797C103.887 500.797 104.757 501.074 104.639 502.618C104.52 504.162 103.14 504.4 103.14 504.4C103.14 504.4 104.877 504.162 105.43 505.429C105.43 505.429 108.202 504.914 108.756 506.814C109.311 508.715 105.193 512.609 105.193 512.609L98.3959 513.928L95.0699 511.552L94.8059 504.425L101.63 498.579Z" fill="#233862"/>
<path d="M99.6189 520.964L86.3899 513.224C86.4629 513.195 86.7319 512.808 87.7199 510.034C88.1419 508.85 88.3649 507.824 88.4749 507.011C88.4859 506.929 88.4969 506.851 88.5039 506.773C88.6389 505.59 88.5399 504.909 88.5399 504.909L91.4379 505.924L96.7969 507.807C96.7339 509.126 96.9249 510.053 97.2139 510.689C97.9139 512.234 99.2179 512.246 99.2539 512.246L99.6189 520.964Z" fill="#FFB27D"/>
<path d="M97.2158 510.687C92.0358 511.114 89.1198 507.837 88.4758 507.01C88.3808 506.889 88.3328 506.822 88.3328 506.822C88.3328 506.822 88.3948 506.803 88.5048 506.771C88.9258 506.651 90.0688 506.316 91.4398 505.921L96.7988 507.804C96.7358 509.124 96.9268 510.051 97.2158 510.687Z" fill="#ED985F"/>
<path d="M97.4748 508.883C97.4748 508.883 85.9678 510.109 85.7328 502.563C85.4968 495.016 83.7958 491.563 91.7578 490.891C99.7198 490.219 101.601 493 102.07 495.553C103.535 503.528 100.718 508.544 97.4748 508.883Z" fill="#FFB27D"/>
<path d="M92.3759 494.577C88.3039 493.577 92.3809 498.038 90.3719 499.516C88.2719 501.062 85.7029 499.566 86.0159 500.914C86.3289 502.262 86.7789 502.744 87.0119 503.585C87.2479 504.428 87.0109 506.094 86.0649 505.758C85.1179 505.422 76.3109 495.671 82.5289 488.074C88.7469 480.478 107.289 485.157 101.45 493.102C100.422 494.502 95.2749 495.289 92.3759 494.577Z" fill="#233862"/>
<path d="M88.3328 500.635C88.3328 500.635 90.4128 501.134 91.0398 502.731C91.0398 502.731 92.7638 502.531 92.8138 504.876C92.8138 504.876 93.0238 505.975 92.2558 506.672C92.2558 506.672 94.0598 509.239 92.0658 510.699C90.0698 512.158 88.3328 500.635 88.3328 500.635Z" fill="#233862"/>
<path d="M120.851 597.316C120.938 594.321 118.671 593.628 117.188 593.628C116.462 593.628 115.315 592.901 114.33 592.157L111.226 578.227C106.369 578.014 98.0278 581.921 98.0278 581.921L105.606 596.046C105.638 596.799 105.699 597.315 105.699 597.315H120.851V597.316Z" fill="#2A4E96"/>
<path d="M76.9628 575.509L68.2078 592.158C67.8118 592.853 67.6038 593.452 67.8048 593.76C68.5028 594.821 73.7388 597.318 73.7388 597.318H81.3288C81.3288 595.294 79.2848 594.248 78.1878 593.825C77.6288 593.609 77.4048 592.677 77.3178 591.811H77.3188L87.2578 580.973C87.2578 580.973 77.3158 575.59 76.9628 575.509Z" fill="#2A4E96"/>
<path d="M108.853 537.154C111.654 550.916 115.85 572.782 116.61 583.833C116.61 583.833 113.203 584.765 107.52 585.56C103.26 586.159 97.7169 586.678 91.3729 586.674C79.8579 586.668 72.6019 583.809 67.1989 579.256C67.1989 579.256 68.2059 576.339 69.6159 572.25C72.8519 562.864 78.2089 547.303 78.3639 546.717C78.4839 546.254 78.8889 544.633 79.4639 542.324C73.8759 546.084 70.8659 555.855 70.8659 555.855C66.5139 555.748 60.6509 552.465 60.6509 552.465C60.6509 552.465 63.6609 540.271 70.8659 528.392C77.5719 517.341 85.2369 515.016 86.2699 514.747C86.2799 514.716 86.2859 514.686 86.2909 514.655C85.6389 514.278 84.9709 513.806 84.3029 513.208C84.3029 513.208 72.6709 499.328 70.9899 493.376C70.8569 492.911 70.8349 492.442 70.9079 491.974C70.9079 491.97 70.9079 491.97 70.9079 491.97C71.7599 486.443 85.8839 481.02 93.4609 484.223C93.4609 484.223 89.4319 491.302 89.2949 499.505C89.2129 504.593 90.6259 510.109 95.4169 514.647H95.4209C98.5599 513.334 98.1569 511.853 98.1569 511.853C98.1569 511.853 105.575 508.542 108.955 504.907C112.823 500.744 117.754 493.377 117.754 493.377C117.754 493.377 124.165 498.42 124.112 499.263C123.569 507.781 118.926 514.289 114.517 518.619C109.609 523.439 107.479 530.414 108.853 537.154Z" fill="#FFD04D"/>
<path d="M172.184 359.044C172.184 359.044 160.709 357.316 155.151 364.545C149.594 371.774 154.962 381.788 145.709 383.173C140.26 383.988 137.198 389.967 142.267 397.342C145.384 401.879 130.019 406.975 142.391 416.941C156.66 428.436 162.195 403.33 170.417 406.199C178.64 409.067 190.306 400.798 186.169 395.704C179.358 387.315 188.679 391.168 188.142 379.589C187.605 368.01 180.024 358.773 172.184 359.044Z" fill="#163560"/>
<path d="M130.121 578.913C130.121 578.913 125.871 582.792 126.7 585.548C127.529 588.305 131.365 590.141 131.884 593.51C132.403 596.879 134.475 598.716 136.341 598.716C138.207 598.716 145.237 598.716 145.237 598.716C145.237 598.716 146.611 596.346 143.293 595.631C139.977 594.916 138.726 590.958 138.933 587.283C139.141 583.608 138.622 578.709 138.622 578.709L131.572 577.076L130.121 578.913Z" fill="#FFC81A"/>
<path d="M166.096 580.871C166.096 580.871 164.567 597.303 166.433 598.222L190.313 598.173C190.313 598.173 190.313 595.417 186.478 594.805C182.643 594.192 175.904 591.946 174.764 586.945C173.623 581.943 166.096 580.871 166.096 580.871Z" fill="#FFC81A"/>
<path d="M185.596 445.707C185.596 445.707 192.481 467.137 192.922 474.434C193.364 481.73 174.26 581.387 173.713 584.748C173.197 587.917 165.654 584.748 165.654 584.748C165.654 584.748 160.295 516.029 163.611 491.482C166.927 466.934 166.966 445.707 166.966 445.707H185.596Z" fill="#233862"/>
<path d="M156.426 445.068C156.426 445.068 145.923 459.159 144.945 468.684C143.966 478.21 147.795 508.971 145.709 518.257C143.623 527.543 131.573 548.111 131.573 577.075C131.573 577.075 137.697 580.571 138.623 578.708C143.804 568.276 164.414 533.942 165.261 526.958C165.861 522.016 171.071 489.304 182.438 470.109C185.167 465.501 180.763 447.174 180.763 447.174L156.426 445.068Z" fill="#2A4E96"/>
<path d="M86.365 513.209L86.39 513.224C86.369 513.233 86.365 513.209 86.365 513.209Z" fill="#FFB27D"/>
<path d="M127.99 483.316C127.808 484.268 127.408 485.293 126.934 485.822C126.316 486.528 125.333 487.939 124.714 488.856C124.315 489.421 124.06 489.844 124.06 489.844L120.931 488.362C120.931 488.362 120.859 483.211 122.932 482.117C123.005 482.082 123.041 482.046 123.114 482.046C123.987 481.588 124.824 481.271 125.552 481.059C126.534 480.812 127.298 480.777 127.735 481.024C128.136 481.234 128.209 482.258 127.99 483.316Z" fill="#ED985F"/>
<path d="M186.755 459.299C179.618 436.485 187.44 431.525 186.696 420.108C185.952 408.691 177.113 396.416 177.113 396.416C177.113 396.416 176.779 396.382 176.196 396.328C175.931 396.304 175.7 396.134 175.601 395.887C175.251 395.017 175.15 392.996 175.156 390.888C175.163 387.745 175.404 384.409 175.404 384.409L164.802 382.31L164.172 382.186C164.198 389.564 162.256 394.409 160.849 395.536C159.524 395.688 157.126 397.596 153.647 399.051C152.334 399.599 150.34 400.522 149.991 401.287C147.08 407.688 141.918 422.378 139.875 433.901C138.736 440.324 137.868 445.309 137.415 446.365C136.15 449.314 132.29 465.531 128.99 473.533L131.981 477.208C131.981 477.208 147.103 451.735 148.367 445.734C148.778 443.78 149.79 439.871 150.969 435.491C151.148 434.828 151.33 434.154 151.515 433.474C153.597 439.122 154.661 441.737 154.602 444.177C154.52 447.65 152.166 450.771 147.244 461.809C144.525 467.907 194.042 482.601 186.755 459.299Z" fill="#FFB27D"/>
<path d="M175.404 386.088C175.404 386.088 175.163 388.011 175.156 391.153C169.224 390.986 166.088 386.988 164.802 383.988L175.404 386.088Z" fill="#E8945B"/>
<path d="M163.709 382.835C163.709 382.835 160.6 377.923 159.854 373.723C159.322 370.724 160.849 359.61 172.018 361.21C172.018 361.21 175.262 361.529 178.311 363.589C180.737 365.227 184.237 368.764 180.324 378.462L179.307 381.738L163.709 382.835Z" fill="#163560"/>
<path d="M177.386 389.064C177.386 389.064 163.35 389.295 163.34 380.552C163.331 371.81 161.514 365.951 170.474 365.434C179.435 364.916 181.18 368.25 181.892 371.167C182.605 374.086 181.036 388.778 177.386 389.064Z" fill="#FFB27D"/>
<g opacity="0.5">
<path opacity="0.5" d="M108.853 537.154C111.654 550.916 115.85 572.782 116.61 583.833C116.61 583.833 113.203 584.765 107.52 585.56C107.52 585.56 98.5819 555.317 100.713 544.247C102.845 533.178 109.283 528.907 105.945 524.831C102.606 520.754 118.925 514.29 114.516 518.62C109.609 523.439 107.479 530.414 108.853 537.154Z" fill="#FFBE08"/>
</g>
<path d="M181.475 366.308C179.309 363.682 177.672 364.253 176.752 365.041C169.227 360.867 164.133 367.063 164.133 367.063C163.194 373.336 158.67 376.929 158.67 376.929C158.67 376.929 161.229 378.509 167.125 376.993C168.926 376.53 170.533 375.253 171.899 373.702C169.512 377.699 166.267 380.579 166.267 380.579C173.312 377.323 176.14 367.525 176.422 366.489C177.278 367.259 178.968 368.929 179.483 370.568C180.183 372.794 180.497 377.378 181.833 377.221C181.833 377.223 184.729 370.251 181.475 366.308Z" fill="#163560"/>
<path d="M129.336 472.778C129.336 472.778 128.056 475.798 126.722 476.64C125.388 477.482 124.555 479.24 124.906 480.854C125.258 482.468 124.546 485.274 126.231 485.274C127.916 485.274 131.846 477.833 132.337 476.429C132.829 475.025 133.25 474.744 133.25 474.744L129.336 472.778Z" fill="#FFB27D"/>
<path d="M193.866 497.985C192.372 509.059 140.47 500.465 138.855 495.355C137.457 490.938 138.959 485.704 140.656 477.686H140.659C141.242 474.934 141.848 471.855 142.37 468.369C140.808 468.798 134.801 471.387 129.039 468.142C131.415 456.288 142.264 413.053 147.798 401.628C150.463 396.124 160.848 395.535 160.848 395.535C160.848 395.535 163.76 398.803 165.218 399.736C170.959 403.414 174.476 402.897 175.914 400.768C177.086 399.033 176.621 397.026 176.234 396.322C176.216 396.289 177.115 396.407 177.115 396.407C179.202 396.688 180.676 396.902 181.739 397.086C183.822 397.452 184.341 397.705 184.859 398.11C186.689 399.981 189.068 404.624 189.259 412.908C189.331 415.982 189.102 419.561 188.434 423.685C188.702 435.315 195.508 485.805 193.866 497.985Z" fill="#4656CC"/>
<path d="M173.353 383.902C173.353 383.902 173.621 384.978 176.303 384.78C176.303 384.78 178.555 384.614 178.473 383.428C178.473 383.429 176.276 382.61 173.353 383.902Z" fill="white"/>
<path d="M131.719 475.783C131.719 475.783 132.49 479.124 131.93 480.174C131.369 481.223 131.746 482.588 130.619 482.203C129.492 481.818 131.719 475.783 131.719 475.783Z" fill="#FFB27D"/>
<path d="M175.137 588.073L181.859 549.721C181.859 549.721 177.953 546.869 160.954 549.721L165.68 596.047L175.137 588.073Z" fill="#FFC81A"/>
<path d="M138.981 585.447L155.516 550.929C155.516 550.929 149.656 542.378 135.56 541.799C135.56 541.799 131.572 559.529 131.572 568.303C131.572 577.075 127.694 581.787 127.694 581.787L138.981 585.447Z" fill="#FFC81A"/>
<path d="M174.801 425.37C175.416 425.37 175.914 424.872 175.914 424.257C175.914 423.642 175.416 423.144 174.801 423.144C174.186 423.144 173.688 423.642 173.688 424.257C173.688 424.872 174.186 425.37 174.801 425.37Z" fill="#163560"/>
<path d="M175.405 447.175C176.02 447.175 176.519 446.676 176.519 446.061C176.519 445.446 176.02 444.947 175.405 444.947C174.79 444.947 174.291 445.446 174.291 446.061C174.291 446.676 174.79 447.175 175.405 447.175Z" fill="#163560"/>
<path d="M175.467 472.203C176.082 472.203 176.58 471.705 176.58 471.09C176.58 470.475 176.082 469.977 175.467 469.977C174.852 469.977 174.354 470.475 174.354 471.09C174.354 471.705 174.852 472.203 175.467 472.203Z" fill="#163560"/>
<g opacity="0.5">
<path opacity="0.5" d="M78.601 557.005C78.81 561.864 69.616 572.25 69.616 572.25C72.852 562.864 78.209 547.303 78.364 546.717C78.484 546.254 78.889 544.633 79.464 542.324L79.466 542.317C79.466 542.317 82.244 539.425 83.404 541.221C84.564 543.018 78.389 552.149 78.601 557.005Z" fill="#FFBE08"/>
</g>
<path d="M100.713 528.58C101.317 528.58 101.807 528.09 101.807 527.486C101.807 526.882 101.317 526.392 100.713 526.392C100.109 526.392 99.6189 526.882 99.6189 527.486C99.6189 528.09 100.109 528.58 100.713 528.58Z" fill="#2A4E96"/>
<path d="M100.713 545.34C101.317 545.34 101.807 544.85 101.807 544.246C101.807 543.642 101.317 543.152 100.713 543.152C100.109 543.152 99.6189 543.642 99.6189 544.246C99.6189 544.85 100.109 545.34 100.713 545.34Z" fill="#2A4E96"/>
<path d="M102.468 566.906C103.072 566.906 103.562 566.416 103.562 565.812C103.562 565.208 103.072 564.718 102.468 564.718C101.864 564.718 101.374 565.208 101.374 565.812C101.374 566.416 101.864 566.906 102.468 566.906Z" fill="#2A4E96"/>
<path d="M91.4629 515.232C90.1609 515.205 88.4689 515.048 86.2909 514.656C85.6389 514.279 84.9709 513.807 84.3029 513.209C84.3029 513.209 72.6709 499.329 70.9899 493.377C70.8569 492.912 70.8349 492.443 70.9079 491.975C71.0309 492.162 75.6939 499.25 89.2949 499.506C89.2409 502.817 89.9419 508.229 91.7719 511.606C92.6699 513.267 93.3519 515.271 91.4629 515.232Z" fill="#FFBE08"/>
<path d="M220.878 448.346C220.878 448.346 217.787 449.629 211.899 450.981C209.656 451.497 207.007 452.024 203.97 452.491C198.749 453.296 194.029 449.721 190.503 445.737C190.488 445.718 190.481 445.709 190.481 445.709C186.592 441.299 184.171 436.399 184.171 436.399V397.696C184.171 397.696 190.38 399.997 194.121 406.061C197.863 412.125 201.82 433.068 203.626 433.535C205.433 434.005 220.045 431.51 220.045 431.51C220.045 431.51 224.703 436.514 220.878 448.346Z" fill="#4656CC"/>
<path d="M226.896 430.896C226.896 430.896 225.477 430.277 224.703 431.954C223.93 433.632 224.316 434.686 225.52 435.149C226.724 435.61 227.456 434.964 227.456 434.964L226.896 430.896Z" fill="#FFB27D"/>
<path d="M211.898 450.98C209.655 451.496 207.006 452.023 203.969 452.49C198.748 453.295 194.028 449.72 190.502 445.736C190.487 445.717 190.48 445.708 190.48 445.708C190.48 445.708 188.689 425.808 190.48 424.257C192.271 422.706 193.575 442.901 198.084 445.708C202.594 448.513 211.395 446.219 211.898 450.98Z" fill="#344AB7"/>
<path d="M152.442 460.707C148.83 466.578 149.387 475.195 140.659 477.686C141.242 474.934 141.848 471.855 142.37 468.369C142.37 468.369 151.049 443.238 151.281 438.355C151.513 433.472 154.12 434.577 154.378 437.093C154.637 439.609 156.056 454.833 152.442 460.707Z" fill="#344AB7"/>
<path d="M172.621 402.43C172.621 402.43 164.043 395.959 163.491 389.418C163.491 389.418 156.537 389.522 156.469 396.221C156.469 396.221 164.671 404.606 172.621 402.43Z" fill="#5A71E5"/>
<path d="M172.621 402.43C172.621 402.43 175.234 395.092 175.161 391.78C175.161 391.78 179.31 393.567 179.49 396.739C179.49 396.738 179.467 402.762 172.621 402.43Z" fill="#5A71E5"/>
<path d="M172.621 403.556C173.236 403.556 173.734 403.058 173.734 402.443C173.734 401.828 173.236 401.33 172.621 401.33C172.006 401.33 171.508 401.828 171.508 402.443C171.508 403.058 172.006 403.556 172.621 403.556Z" fill="#163560"/>
<path d="M299.686 351.233C300.552 349.177 306.895 344.524 306.895 344.524C306.895 344.524 307.996 352.314 307.129 354.369C306.263 356.425 303.895 357.389 301.839 356.523C299.783 355.657 298.819 353.289 299.686 351.233Z" fill="white"/>
<path d="M328.582 304.07C329.448 302.014 335.791 297.361 335.791 297.361C335.791 297.361 336.892 305.151 336.025 307.206C335.159 309.262 332.791 310.226 330.734 309.359C328.681 308.494 327.715 306.125 328.582 304.07Z" fill="white"/>
<path d="M333.404 330.139C334.271 328.084 340.613 323.431 340.613 323.431C340.613 323.431 341.714 331.22 340.847 333.276C339.982 335.332 337.613 336.296 335.558 335.429C333.503 334.563 332.538 332.194 333.404 330.139Z" fill="white"/>
<path d="M399.967 431.121C400.833 429.065 407.176 424.412 407.176 424.412C407.176 424.412 408.277 432.202 407.41 434.258C406.543 436.314 404.175 437.278 402.12 436.411C400.064 435.545 399.101 433.178 399.967 431.121Z" fill="white"/>
<path d="M428.862 383.958C429.728 381.902 436.072 377.25 436.072 377.25C436.072 377.25 437.172 385.039 436.305 387.095C435.44 389.151 433.071 390.115 431.015 389.248C428.961 388.383 427.996 386.014 428.862 383.958Z" fill="white"/>
<path d="M433.686 410.027C434.551 407.971 440.895 403.318 440.895 403.318C440.895 403.318 441.995 411.108 441.129 413.164C440.264 415.219 437.895 416.184 435.839 415.317C433.783 414.45 432.819 412.083 433.686 410.027Z" fill="white"/>
<path d="M323.673 376.111C324.539 374.056 330.883 369.402 330.883 369.402C330.883 369.402 331.983 377.192 331.116 379.248C330.249 381.304 327.882 382.268 325.826 381.402C323.771 380.535 322.807 378.167 323.673 376.111Z" fill="white"/>
<path d="M371.609 341.997C372.475 339.941 378.818 335.288 378.818 335.288C378.818 335.288 379.919 343.078 379.052 345.133C378.186 347.189 375.818 348.153 373.762 347.286C371.706 346.419 370.743 344.053 371.609 341.997Z" fill="white"/>
<path d="M326.456 412.051C327.322 409.995 333.666 405.342 333.666 405.342C333.666 405.342 334.766 413.132 333.899 415.187C333.033 417.243 330.665 418.207 328.609 417.34C326.555 416.475 325.59 414.106 326.456 412.051Z" fill="white"/>
<path d="M416.826 476.36C417.692 474.305 424.035 469.651 424.035 469.651C424.035 469.651 425.136 477.441 424.269 479.496C423.403 481.552 421.034 482.516 418.979 481.649C416.924 480.783 415.96 478.416 416.826 476.36Z" fill="white"/>
<path d="M263.317 386.006C264.183 383.95 270.527 379.297 270.527 379.297C270.527 379.297 271.627 387.087 270.76 389.143C269.894 391.198 267.525 392.163 265.47 391.296C263.415 390.43 262.451 388.062 263.317 386.006Z" fill="white"/>
<path d="M354.33 503.957C355.196 501.901 361.54 497.248 361.54 497.248C361.54 497.248 362.64 505.038 361.772 507.093C360.906 509.149 358.539 510.113 356.482 509.247C354.429 508.381 353.463 506.012 354.33 503.957Z" fill="white"/>
<path d="M93.486 304.07C94.353 302.014 100.696 297.361 100.696 297.361C100.696 297.361 101.797 305.151 100.929 307.206C100.064 309.262 97.695 310.226 95.639 309.359C93.585 308.494 92.62 306.126 93.486 304.07Z" fill="white"/>
<path d="M88.651 430.273C89.518 428.217 95.861 423.564 95.861 423.564C95.861 423.564 96.962 431.353 96.095 433.408C95.229 435.465 92.861 436.428 90.804 435.562C88.75 434.697 87.785 432.328 88.651 430.273Z" fill="white"/>
<path d="M44.868 357.392C45.734 355.336 52.078 350.683 52.078 350.683C52.078 350.683 53.178 358.473 52.312 360.529C51.445 362.585 49.076 363.549 47.021 362.682C44.966 361.815 44.002 359.447 44.868 357.392Z" fill="white"/>
<path d="M324.787 463.054C325.652 460.998 331.996 456.345 331.996 456.345C331.996 456.345 333.096 464.135 332.229 466.191C331.363 468.246 328.996 469.21 326.939 468.344C324.885 467.478 323.92 465.109 324.787 463.054Z" fill="white"/>
<path d="M280.041 488.878C280.907 486.822 287.251 482.169 287.251 482.169C287.251 482.169 288.352 489.959 287.484 492.015C286.618 494.071 284.25 495.035 282.194 494.168C280.14 493.302 279.176 490.934 280.041 488.878Z" fill="white"/>
<path d="M362.424 416.187C363.289 414.131 369.633 409.477 369.633 409.477C369.633 409.477 370.734 417.268 369.867 419.323C369 421.379 366.633 422.343 364.576 421.477C362.521 420.61 361.558 418.241 362.424 416.187Z" fill="white"/>
<path d="M280.041 427.155C280.907 425.099 287.251 420.447 287.251 420.447C287.251 420.447 288.352 428.236 287.484 430.292C286.618 432.348 284.25 433.311 282.194 432.445C280.14 431.579 279.176 429.211 280.041 427.155Z" fill="white"/>
<path d="M199.404 289.77C200.269 287.714 206.613 283.061 206.613 283.061C206.613 283.061 207.714 290.851 206.847 292.906C205.98 294.962 203.613 295.926 201.556 295.059C199.502 294.193 198.538 291.825 199.404 289.77Z" fill="white"/>
<path d="M228.301 242.606C229.166 240.55 235.51 235.897 235.51 235.897C235.51 235.897 236.61 243.687 235.744 245.743C234.877 247.798 232.51 248.762 230.453 247.896C228.398 247.03 227.435 244.662 228.301 242.606Z" fill="white"/>
<path d="M233.123 268.676C233.989 266.62 240.333 261.967 240.333 261.967C240.333 261.967 241.433 269.757 240.566 271.812C239.7 273.868 237.332 274.832 235.276 273.965C233.222 273.1 232.257 270.731 233.123 268.676Z" fill="white"/>
<defs>
<linearGradient id="paint0_linear" x1="270" y1="640" x2="270" y2="528.581" gradientUnits="userSpaceOnUse">
<stop stop-color="#DFEFF7"/>
<stop offset="1" stop-color="#D0E9F4"/>
</linearGradient>
</defs>
</svg>
